{"title":"Baby.Driver.2017.CAM.READNFO.XViD-26k","magnet":"magnet:?xt=urn:btih:785a7f3f84805d4a55d6e0c7a12e6e841c53922b&dn=Baby.Driver.2017.CAM.READNFO.XViD-26k&tr=udp%3A%2F%2Ftracker.leechers-paradise.org%3A6969&tr=udp%3A%2F%2Fzer0day.ch%3A1337&tr=udp%3A%2F%2Fopen.demonii.com%3A1337&tr=udp%3A%2F%2Ftracker.coppersurfer.tk%3A6969&tr=udp%3A%2F%2Fexodus.desync.com%3A6969","uploader":"makintos13","categoryP":"video","categoryS":"films","size":"1535546782","seeders":"51","leechers":"72","description":"screens:\r\n <a href=\"\nhttps://imgmak.com/zor\" rel=\"nofollow\" target=\"_NEW\">\nhttps://imgmak.com/zor</a>\r\n <a href=\"\nhttps://imgmak.com/zoB\" rel=\"nofollow\" target=\"_NEW\">\nhttps://imgmak.com/zoB</a>\r\n <a href=\"\nhttps://imgmak.com/zoI\" rel=\"nofollow\" target=\"_NEW\">\nhttps://imgmak.com/zoI</a>\r\n <a href=\"\nhttps://imgmak.com/zoq\" rel=\"nofollow\" target=\"_NEW\">\nhttps://imgmak.com/zoq</a>\r\n\r\n\r\n\r\nVideo\r\nID                          : 0\r\nFormat                      : MPEG-4 Visual\r\nFormat profile              : Advanced <a class=\"__cf_email__\" href=\"/cdn-cgi/l/email-protection\" data-cfemail=\"8ddee4e0fde1e8cdc1b8\">[email&#xA0;protected]</a><script data-cfhash=\"f9e31\" type=\"text/javascript\">/* <![CDATA[ */!function(t,e,r,n,c,a,p){try{t=document.currentScript||function(){for(t=document.getElementsByTagName('script'),e=t.length;e--;)if(t[e].getAttribute('data-cfhash'))return t[e]}();if(t&&(c=t.previousSibling)){p=t.parentNode;if(a=c.getAttribute('data-cfemail')){for(e='',r='0x'+a.substr(0,2)|0,n=2;a.length-n;n+=2)e+='%'+('0'+('0x'+a.substr(n,2)^r).toString(16)).slice(-2);p.replaceChild(document.createTextNode(decodeURIComponent(e)),c)}p.removeChild(t)}}catch(u){}}()/* ]]> */</script>\r\nFormat settings, BVOP       : 2\r\nFormat settings, QPel       : Yes\r\nFormat settings, GMC        : No warppoints\r\nFormat settings, Matrix     : Default (H.263)\r\nMuxing mode                 : Packed bitstream\r\nCodec ID                    : XVID\r\nCodec ID/Hint               : XviD\r\nDuration                    : 1h 49mn\r\nBit rate                    : 1 690 Kbps\r\nWidth                       : 720 pixels\r\nHeight                      : 304 pixels\r\nDisplay aspect ratio        : 2.35:1\r\nFrame rate                  : 29.970 fps\r\nColor space                 : YUV\r\nChroma subsampling          : 4:2:0\r\nBit depth                   : 8 bits\r\nScan type                   : Progressive\r\nCompression mode            : Lossy\r\nBits/(Pixel*Frame)          : 0.258\r\nStream size                 : 1.29 GiB (92%)\r\nWriting library             : XviD 67\r\n\r\nAudio\r\nID                          : 1\r\nFormat                      : MPEG Audio\r\nFormat version              : Version 1\r\nFormat profile              : Layer 3\r\nMode                        : Joint stereo\r\nMode extension              : MS Stereo\r\nCodec ID                    : 55\r\nCodec ID/Hint               : MP3\r\nDuration                    : 1h 49mn\r\nBit rate mode               : Constant\r\nBit rate                    : 128 Kbps\r\nChannel(s)                  : 2 channels\r\nSampling rate               : 48.0 KHz\r\nCompression mode            : Lossy\r\nDelay relative to video     : 17ms\r\nStream size                 : 100 MiB (7%)\r\nAlignment                   : Split accross interleaves\r\nInterleave, duration        : 33 ms (1.00 video frame)","last_updated":"2017-07-15T12:04:27.872Z","parsed":{"xt":"urn:btih:785a7f3f84805d4a55d6e0c7a12e6e841c53922b","dn":"Baby.Driver.2017.CAM.READNFO.XViD-26k","tr":["udp://exodus.desync.com:6969","udp://open.demonii.com:1337","udp://tracker.coppersurfer.tk:6969","udp://tracker.leechers-paradise.org:6969","udp://zer0day.ch:1337"],"infoHash":"785a7f3f84805d4a55d6e0c7a12e6e841c53922b","infoHashBuffer":{"type":"Buffer","data":[120,90,127,63,132,128,93,74,85,214,224,199,161,46,110,132,28,83,146,43]},"name":"Baby.Driver.2017.CAM.READNFO.XViD-26k","announce":["udp://exodus.desync.com:6969","udp://open.demonii.com:1337","udp://tracker.coppersurfer.tk:6969","udp://tracker.leechers-paradise.org:6969","udp://zer0day.ch:1337"],"urlList":[]}}